<mxfile host="app.diagrams.net" modified="2021-01-28T01:04:04.083Z" agent="5.0 (Macintosh; Intel Mac OS X 10_11_6) AppleWebKit/537.36 (KHTML, like Gecko) Chrome/88.0.4324.96 Safari/537.36" etag="YB96lJ-JbhCyNGbOR1M3" version="14.2.7" type="github">
  <diagram id="cR1TYecES6htTFMFwxhu" name="Page-1">
    <mxGraphModel dx="1157" dy="658" grid="1" gridSize="10" guides="1" tooltips="1" connect="1" arrows="1" fold="1" page="1" pageScale="3" pageWidth="827" pageHeight="1169" math="0" shadow="0">
      <root>
        <mxCell id="0" />
        <mxCell id="1" parent="0" />
        <mxCell id="STWv2o8jnS7VplZW6BMZ-3" value="" style="edgeStyle=orthogonalEdgeStyle;rounded=0;orthogonalLoop=1;jettySize=auto;html=1;" edge="1" parent="1" source="STWv2o8jnS7VplZW6BMZ-1" target="STWv2o8jnS7VplZW6BMZ-2">
          <mxGeometry relative="1" as="geometry" />
        </mxCell>
        <mxCell id="STWv2o8jnS7VplZW6BMZ-1" value="Start" style="rounded=1;whiteSpace=wrap;html=1;fillColor=#f8cecc;strokeColor=#b85450;" vertex="1" parent="1">
          <mxGeometry x="250" y="80" width="120" height="60" as="geometry" />
        </mxCell>
        <mxCell id="STWv2o8jnS7VplZW6BMZ-5" value="" style="edgeStyle=orthogonalEdgeStyle;rounded=0;orthogonalLoop=1;jettySize=auto;html=1;" edge="1" parent="1" source="STWv2o8jnS7VplZW6BMZ-2" target="STWv2o8jnS7VplZW6BMZ-4">
          <mxGeometry relative="1" as="geometry" />
        </mxCell>
        <mxCell id="STWv2o8jnS7VplZW6BMZ-2" value="设置环境变量" style="whiteSpace=wrap;html=1;rounded=1;fillColor=#dae8fc;strokeColor=#6c8ebf;" vertex="1" parent="1">
          <mxGeometry x="250" y="200" width="120" height="60" as="geometry" />
        </mxCell>
        <mxCell id="STWv2o8jnS7VplZW6BMZ-7" value="" style="edgeStyle=orthogonalEdgeStyle;rounded=0;orthogonalLoop=1;jettySize=auto;html=1;" edge="1" parent="1" source="STWv2o8jnS7VplZW6BMZ-4" target="STWv2o8jnS7VplZW6BMZ-6">
          <mxGeometry relative="1" as="geometry" />
        </mxCell>
        <mxCell id="STWv2o8jnS7VplZW6BMZ-4" value="请求接口获得Token" style="shape=step;perimeter=stepPerimeter;whiteSpace=wrap;html=1;fixedSize=1;rounded=1;fillColor=#dae8fc;strokeColor=#6c8ebf;" vertex="1" parent="1">
          <mxGeometry x="230" y="320" width="160" height="80" as="geometry" />
        </mxCell>
        <mxCell id="STWv2o8jnS7VplZW6BMZ-9" value="" style="edgeStyle=orthogonalEdgeStyle;rounded=0;orthogonalLoop=1;jettySize=auto;html=1;" edge="1" parent="1" source="STWv2o8jnS7VplZW6BMZ-6" target="STWv2o8jnS7VplZW6BMZ-8">
          <mxGeometry relative="1" as="geometry" />
        </mxCell>
        <mxCell id="STWv2o8jnS7VplZW6BMZ-6" value="设置token到环境变量" style="whiteSpace=wrap;html=1;rounded=1;fillColor=#dae8fc;strokeColor=#6c8ebf;" vertex="1" parent="1">
          <mxGeometry x="435" y="330" width="150" height="60" as="geometry" />
        </mxCell>
        <mxCell id="STWv2o8jnS7VplZW6BMZ-11" value="" style="edgeStyle=orthogonalEdgeStyle;rounded=0;orthogonalLoop=1;jettySize=auto;html=1;" edge="1" parent="1" source="STWv2o8jnS7VplZW6BMZ-8" target="STWv2o8jnS7VplZW6BMZ-10">
          <mxGeometry relative="1" as="geometry" />
        </mxCell>
        <mxCell id="STWv2o8jnS7VplZW6BMZ-8" value="带有token的请求访问下一个接口" style="shape=step;perimeter=stepPerimeter;whiteSpace=wrap;html=1;fixedSize=1;rounded=1;fillColor=#dae8fc;strokeColor=#6c8ebf;" vertex="1" parent="1">
          <mxGeometry x="392.5" y="430" width="235" height="80" as="geometry" />
        </mxCell>
        <mxCell id="STWv2o8jnS7VplZW6BMZ-13" value="" style="edgeStyle=orthogonalEdgeStyle;rounded=0;orthogonalLoop=1;jettySize=auto;html=1;" edge="1" parent="1" source="STWv2o8jnS7VplZW6BMZ-10" target="STWv2o8jnS7VplZW6BMZ-12">
          <mxGeometry relative="1" as="geometry" />
        </mxCell>
        <mxCell id="STWv2o8jnS7VplZW6BMZ-10" value="获取相应的响应值" style="whiteSpace=wrap;html=1;rounded=1;fillColor=#dae8fc;strokeColor=#6c8ebf;" vertex="1" parent="1">
          <mxGeometry x="680" y="440" width="120" height="60" as="geometry" />
        </mxCell>
        <mxCell id="STWv2o8jnS7VplZW6BMZ-12" value="End" style="whiteSpace=wrap;html=1;rounded=1;fillColor=#f8cecc;strokeColor=#b85450;" vertex="1" parent="1">
          <mxGeometry x="680" y="580" width="120" height="60" as="geometry" />
        </mxCell>
        <mxCell id="STWv2o8jnS7VplZW6BMZ-14" value="Postman实战基本逻辑" style="text;html=1;align=center;verticalAlign=middle;resizable=0;points=[];autosize=1;fontSize=20;" vertex="1" parent="1">
          <mxGeometry x="490" y="190" width="210" height="30" as="geometry" />
        </mxCell>
      </root>
    </mxGraphModel>
  </diagram>
</mxfile>
